<?xml version="1.0" standalone="no"?><!DOCTYPE svg PUBLIC "-//W3C//DTD SVG 1.1//EN" "http://www.w3.org/Graphics/SVG/1.1/DTD/svg11.dtd"><svg class="icon" width="200px" height="200.00px" viewBox="0 0 1024 1024" version="1.1" xmlns="http://www.w3.org/2000/svg"><path d="M353.49815 33.040365H70.704225A70.658354 70.658354 0 0 0 0.000011 103.744578v282.793925a70.658354 70.658354 0 0 0 70.704214 70.704213h282.793925A70.658354 70.658354 0 0 0 424.202363 386.538503V103.744578a70.658354 70.658354 0 0 0-70.704213-70.704213z m-2.671329 350.82681H73.375553v-277.451269h277.451268zM1005.164682 199.866538l-181.03122-181.03122a63.859651 63.859651 0 0 0-90.572935 0l-181.03122 181.03122a63.859651 63.859651 0 0 0 0 90.572935l181.03122 181.03122a63.859651 63.859651 0 0 0 90.572935 0l181.03122-181.03122a63.859651 63.859651 0 0 0 0-90.572935zM778.85846 412.953698L611.080697 245.14154 778.85846 77.329383l167.812157 167.812157zM353.49815 599.797637H70.704225A70.658354 70.658354 0 0 0 0.000011 670.490385v282.80539a70.658354 70.658354 0 0 0 70.704214 70.704214h282.793925A70.658354 70.658354 0 0 0 424.202363 953.295775V670.490385a70.658354 70.658354 0 0 0-70.704213-70.692748z m-2.671329 350.82681H73.375553v-277.451268h277.451268zM920.255422 599.797637H637.450032a70.658354 70.658354 0 0 0-70.704213 70.704213v282.793925A70.658354 70.658354 0 0 0 637.450032 1023.999989h282.80539a70.658354 70.658354 0 0 0 70.704213-70.704214V670.490385a70.658354 70.658354 0 0 0-70.704213-70.692748z m-2.671328 350.82681h-277.451269v-277.451268h277.451269z" fill="#8a8a8a" /></svg>