<?xml version="1.0" standalone="no"?><!DOCTYPE svg PUBLIC "-//W3C//DTD SVG 1.1//EN" "http://www.w3.org/Graphics/SVG/1.1/DTD/svg11.dtd"><svg class="icon" width="200px" height="185.68px" viewBox="0 0 1103 1024" version="1.1" xmlns="http://www.w3.org/2000/svg"><path d="M1093.013513 515.816302L551.948064 0 10.870305 515.816302C-2.46213 528.582448-3.693195 550.569271 8.211205 564.886559a31.145949 31.145949 0 0 0 45.844866 2.856071l108.333734-103.249435V1024H487.009377V676.457995h129.877375V1024h324.668814V464.493195l108.333734 103.249435a31.084395 31.084395 0 0 0 21.592883 8.789806 31.527579 31.527579 0 0 0 24.251984-11.645877c11.867468-14.317288 10.661024-36.304112-2.720654-49.070257zM876.616879 954.48175H681.813128V606.915124h-259.754749v347.566626H227.266939V413.957971L551.948064 103.274056l324.668815 310.683915z" fill="#8a8a8a" /></svg>