<?xml version="1.0" standalone="no"?><!DOCTYPE svg PUBLIC "-//W3C//DTD SVG 1.1//EN" "http://www.w3.org/Graphics/SVG/1.1/DTD/svg11.dtd"><svg class="icon" width="200px" height="179.33px" viewBox="0 0 1142 1024" version="1.1" xmlns="http://www.w3.org/2000/svg"><path d="M315.073981 236.308673h472.617346v78.765308H315.073981zM315.073981 472.617346h472.617346v78.765308H315.073981zM315.073981 708.926019h472.617346v78.765308H315.073981z" fill="#8a8a8a" /><path d="M1142.154336 512.006374c0-73.156515-50.377164-134.305113-118.154336-151.921824V118.154336A118.281809 118.281809 0 0 0 905.845664 0H196.919645a118.281809 118.281809 0 0 0-118.154336 118.154336v196.919645H0V393.890279h78.765309v236.257684H0v78.765308h78.765309v196.932393a118.281809 118.281809 0 0 0 118.154336 118.154336h708.926019a118.281809 118.281809 0 0 0 118.154336-118.154336V663.928197C1091.777172 646.285992 1142.154336 585.099152 1142.154336 512.006374zM905.845664 945.234691H196.919645a39.440017 39.440017 0 0 1-39.389028-39.389027V708.926019h78.765309v-78.778056h-78.752562V393.890279h78.765309v-78.816298h-78.765309V118.154336a39.440017 39.440017 0 0 1 39.389028-39.389027h708.913272a39.440017 39.440017 0 0 1 39.389027 39.389027v241.917467c-67.777172 17.616711-118.154336 78.765309-118.154336 151.921823S877.45752 646.285992 945.234691 663.928197v241.917467a39.440017 39.440017 0 0 1-39.389027 39.389027z m78.765308-354.463009a78.765309 78.765309 0 1 1 78.765309-78.765308 78.841792 78.841792 0 0 1-78.765309 78.765308z" fill="#8a8a8a" /></svg>