<?xml version="1.0" standalone="no"?><!DOCTYPE svg PUBLIC "-//W3C//DTD SVG 1.1//EN" "http://www.w3.org/Graphics/SVG/1.1/DTD/svg11.dtd"><svg class="icon" width="200px" height="186.01px" viewBox="0 0 1101 1024" version="1.1" xmlns="http://www.w3.org/2000/svg"><path d="M786.461538 512a157.6 157.6 0 0 1 196.923077-152.615385V118.153846c0-65.144615-51.347692-118.153846-114.461538-118.153846H193.230769c-63.113846 0-114.461538 53.009231-114.461538 118.153846v196.307692h157.538461v78.769231H78.769231V315.076923H0v78.769231h78.769231v235.692308h157.538461v78.76923H77.538462V630.153846H0v78.769231h78.769231v196.923077c0 65.144615 51.347692 118.153846 114.461538 118.153846h675.692308c63.113846 0 114.461538-53.009231 114.461538-118.153846V664.615385a157.6 157.6 0 0 1-196.923077-152.615385zM315.076923 236.307692h472.615385v78.769231H315.076923z m0 236.307693h391.384615v78.76923H315.076923z m472.615385 315.076923H315.076923v-78.769231h472.615385z m195.692307-428.307693v84.381539a78.769231 78.769231 0 1 0 0 136.344615V664.615385a157.538462 157.538462 0 0 0 0-305.23077z" fill="#FF8FAF" /></svg>