<?xml version="1.0" standalone="no"?><!DOCTYPE svg PUBLIC "-//W3C//DTD SVG 1.1//EN" "http://www.w3.org/Graphics/SVG/1.1/DTD/svg11.dtd"><svg class="icon" width="200px" height="200.00px" viewBox="0 0 1024 1024" version="1.1" xmlns="http://www.w3.org/2000/svg"><path d="M673.001065 536.434673C752.144116 484.032155 804.571429 394.388765 804.571429 292.571429 804.571429 131.248039 673.32339 0 512 0S219.428571 131.248039 219.428571 292.571429c0 101.817337 52.427312 191.460726 131.570364 243.863244C147.389056 599.287942 0 777.533366 0 987.428571a36.571429 36.571429 0 0 0 73.142857 0C73.142857 765.607361 269.99632 585.142857 512 585.142857s438.857143 180.464504 438.857143 402.285714a36.571429 36.571429 0 0 0 73.142857 0c0-209.895206-147.389056-388.14063-350.998935-450.993898zM292.571429 292.571429c0-120.995642 98.43293-219.428571 219.428571-219.428572s219.428571 98.43293 219.428571 219.428572-98.43293 219.428571-219.428571 219.428571-219.428571-98.43293-219.428571-219.428571z" fill="#8a8a8a" /></svg>