<?xml version="1.0"?>
<svg xmlns="http://www.w3.org/2000/svg" height="512px" viewBox="-51 0 512 512" width="512px" class=""><g><path d="m312.617188 132.59375 21.863281-21.863281c6.113281 2.914062 12.75 4.378906 19.390625 4.378906 11.523437 0 23.046875-4.386719 31.816406-13.160156 17.546875-17.542969 17.546875-46.09375 0-63.640625-17.542969-17.542969-46.09375-17.542969-63.636719 0-13.828125 13.828125-16.75 34.488281-8.78125 51.210937l-28.597656 28.597657c-8.921875-3.777344-18.164063-6.933594-27.671875-9.425782v-78.691406h28v-30h-160v30h28v78.691406c-87.9375 23.074219-153 103.234375-153 198.308594 0 113.039062 91.960938 205 205 205 113.035156 0 205-91.960938 205-205 0-73.59375-38.984375-138.238281-97.382812-174.40625zm30.648437-73.070312c5.847656-5.847657 15.363281-5.847657 21.210937 0 2.832032 2.832031 4.394532 6.597656 4.394532 10.605468 0 4.007813-1.5625 7.773438-4.394532 10.609375-2.832031 2.832031-6.597656 4.390625-10.605468 4.390625-4.007813 0-7.773438-1.558594-10.605469-4.390625-2.832031-2.835937-4.394531-6.601562-4.394531-10.609375 0-4.007812 1.558594-7.773437 4.394531-10.605468zm-160.265625-29.523438h44v73.183594c-7.230469-.777344-14.566406-1.183594-22-1.183594s-14.769531.40625-22 1.183594zm22 452c-96.496094 0-175-78.503906-175-175s78.503906-175 175-175 175 78.503906 175 175-78.503906 175-175 175zm0 0" data-original="#000000" class="active-path" data-old_color="#000000" fill="#818181"/><path d="m205 162c-79.953125 0-145 65.046875-145 145s65.046875 145 145 145 145-65.046875 145-145-65.046875-145-145-145zm0 260c-63.410156 0-115-51.589844-115-115s51.589844-115 115-115 115 51.589844 115 115-51.589844 115-115 115zm0 0" data-original="#000000" class="active-path" data-old_color="#000000" fill="#818181"/><path d="m194.390625 296.394531 59-59 21.210937 21.210938-59 59zm0 0" data-original="#000000" class="active-path" data-old_color="#000000" fill="#818181"/></g> </svg>
